<svg width="212" height="93" viewBox="0 0 212 93" fill="none" xmlns="http://www.w3.org/2000/svg">
<g clip-path="url(#clip0_106_8)">
<path d="M198.772 60.5955H13.2283C5.93663 60.5955 0 54.6753 0 47.3946C0 40.1139 5.93663 34.1937 13.2283 34.1937H70.1943C71.0206 15.1963 86.7648 0 106 0C125.235 0 140.979 15.1963 141.806 34.1937H198.768C206.063 34.1937 211.996 40.1139 211.996 47.3946C211.996 54.6753 206.059 60.5955 198.768 60.5955H198.772ZM13.2283 37.9042C7.98574 37.9042 3.71814 42.1629 3.71814 47.3946C3.71814 52.6263 7.98574 56.8851 13.2283 56.8851H198.772C204.014 56.8851 208.282 52.6263 208.282 47.3946C208.282 42.1629 204.014 37.9042 198.772 37.9042H138.059L138.121 35.9088C138.121 35.8634 138.121 35.8139 138.121 35.7686C138.121 18.0904 123.711 3.71044 105.996 3.71044C88.281 3.71044 73.8712 18.0904 73.8712 35.7686C73.8712 35.8139 73.8712 35.8634 73.8712 35.9088L73.9331 37.9042H13.2283Z" fill="url(#paint0_linear_106_8)"/>
<path d="M76.2797 63.5268C76.383 79.8197 89.6484 93 106 93C122.352 93 135.617 79.8238 135.72 63.5268H76.2797ZM106 68.9234C107.392 68.9234 108.516 70.0489 108.516 71.4341C108.516 72.8193 107.388 73.9448 106 73.9448C104.612 73.9448 103.484 72.8193 103.484 71.4341C103.484 70.0489 104.612 68.9234 106 68.9234ZM106 86.1357C100.906 86.1357 96.7749 82.0295 96.7418 76.9544H115.262C115.229 82.0295 111.098 86.1357 106.004 86.1357H106Z" fill="#DB947F"/>
</g>
<defs>
<linearGradient id="paint0_linear_106_8" x1="0" y1="30.2978" x2="212" y2="30.2978" gradientUnits="userSpaceOnUse">
<stop stop-color="#05117F"/>
<stop offset="0.2" stop-color="#08107C"/>
<stop offset="0.37" stop-color="#121074"/>
<stop offset="0.52" stop-color="#230F66"/>
<stop offset="0.66" stop-color="#3B0E52"/>
<stop offset="0.8" stop-color="#590C39"/>
<stop offset="0.93" stop-color="#7F0A1B"/>
<stop offset="1" stop-color="#960909"/>
</linearGradient>
<clipPath id="clip0_106_8">
<rect width="212" height="93" fill="white"/>
</clipPath>
</defs>
</svg>
