<svg width="117" height="97" viewBox="0 0 117 97" fill="none" xmlns="http://www.w3.org/2000/svg">
<g clip-path="url(#clip0_116_2)">
<path d="M68.5737 36.86H74.4237C75.5001 36.86 76.3737 35.9928 76.3737 34.92C76.3737 33.8472 75.5001 32.98 74.4237 32.98H68.5737C67.4973 32.98 66.6237 33.8472 66.6237 34.92C66.6237 35.9928 67.4973 36.86 68.5737 36.86Z" fill="#20201D"/>
<path d="M100.425 32.98H94.575C93.4986 32.98 92.625 33.8472 92.625 34.92C92.625 35.9928 93.4986 36.86 94.575 36.86H100.425C101.501 36.86 102.375 35.9928 102.375 34.92C102.375 33.8472 101.501 32.98 100.425 32.98Z" fill="#20201D"/>
<path d="M22.425 79.54H16.575C15.4986 79.54 14.625 80.4072 14.625 81.48C14.625 82.5529 15.4986 83.42 16.575 83.42H22.425C23.5014 83.42 24.375 82.5529 24.375 81.48C24.375 80.4072 23.5014 79.54 22.425 79.54Z" fill="#20201D"/>
<path d="M22.425 48.5H16.575C15.4986 48.5 14.625 49.3672 14.625 50.44C14.625 51.5128 15.4986 52.38 16.575 52.38H22.425C23.5014 52.38 24.375 51.5128 24.375 50.44C24.375 49.3672 23.5014 48.5 22.425 48.5Z" fill="#20201D"/>
<path d="M22.425 64.02H16.575C15.4986 64.02 14.625 64.8872 14.625 65.96C14.625 67.0328 15.4986 67.9 16.575 67.9H22.425C23.5014 67.9 24.375 67.0328 24.375 65.96C24.375 64.8872 23.5014 64.02 22.425 64.02Z" fill="#20201D"/>
<path d="M116.407 10.249C115.366 7.42825 113.043 5.21665 110.146 4.31843C109.994 4.27187 109.84 4.22725 109.684 4.18845C109.062 4.02937 108.414 3.92849 107.751 3.89551C107.585 3.88775 107.418 3.88193 107.25 3.88193H99.45V1.93999C99.45 1.80613 99.4363 1.67421 99.411 1.54811C99.3856 1.42201 99.3466 1.29979 99.2979 1.18339C99.1984 0.950587 99.0561 0.743007 98.8806 0.566467C98.5276 0.215327 98.0401 -0.00195312 97.5019 -0.00195312C96.9637 -0.00195312 96.4762 0.215327 96.1233 0.566467C95.9478 0.741067 95.8035 0.950587 95.706 1.18339C95.6572 1.29979 95.6182 1.42201 95.5929 1.54811C95.5675 1.67421 95.5539 1.80613 95.5539 1.93999V3.87999H89.7039V1.93999C89.7039 1.80613 89.6902 1.67421 89.6649 1.54811C89.6395 1.42201 89.6005 1.29979 89.5518 1.18339C89.4523 0.950587 89.31 0.743007 89.1345 0.566467C88.7815 0.215327 88.294 -0.00195312 87.7558 -0.00195312C87.2176 -0.00195312 86.7301 0.215327 86.3772 0.566467C86.2017 0.741067 86.0574 0.950587 85.9599 1.18339C85.9111 1.29979 85.8721 1.42201 85.8468 1.54811C85.8214 1.67421 85.8078 1.80613 85.8078 1.93999V3.87999H31.2V1.93999C31.2 1.80613 31.1863 1.67421 31.161 1.54811C31.1356 1.42201 31.0966 1.29979 31.0479 1.18339C30.9484 0.950587 30.8061 0.743007 30.6306 0.566467C30.2776 0.215327 29.7901 -0.00195312 29.2519 -0.00195312C28.7137 -0.00195312 28.2262 0.215327 27.8733 0.566467C27.6978 0.741067 27.5535 0.950587 27.456 1.18339C27.4072 1.29979 27.3682 1.42201 27.3429 1.54811C27.3175 1.67421 27.3039 1.80613 27.3039 1.93999V3.87999H21.4539V1.93999C21.4539 1.80613 21.4402 1.67421 21.4149 1.54811C21.3895 1.42201 21.3505 1.29979 21.3018 1.18339C21.2023 0.950587 21.06 0.743007 20.8845 0.566467C20.5315 0.215327 20.044 -0.00195312 19.5058 -0.00195312C18.9676 -0.00195312 18.4801 0.215327 18.1272 0.566467C17.9517 0.741067 17.8074 0.950587 17.7099 1.18339C17.6611 1.29979 17.6221 1.42201 17.5968 1.54811C17.5714 1.67421 17.5578 1.80613 17.5578 1.93999V3.87999H9.75C9.5823 3.87999 9.4146 3.88387 9.24885 3.89357C8.58585 3.92655 7.93845 4.02743 7.3164 4.18651C7.1604 4.22725 7.00635 4.26993 6.85425 4.31649C3.9546 5.21665 1.63215 7.42631 0.5928 10.249C0.20865 11.2888 0 12.4102 0 13.58V87.3C0 92.6486 4.37385 97 9.75 97H107.25C112.626 97 117 92.6486 117 87.3V13.58C117 12.4102 116.791 11.2869 116.407 10.249ZM9.75 7.75999H17.55V9.69999C17.55 9.83385 17.5636 9.96577 17.589 10.0919C17.6143 10.218 17.6533 10.3402 17.7021 10.4566C17.8015 10.6894 17.9439 10.897 18.1194 11.0735C18.4723 11.4246 18.9598 11.6419 19.498 11.6419C20.0362 11.6419 20.5237 11.4246 20.8767 11.0735C21.0522 10.8989 21.1965 10.6894 21.294 10.4566C21.3427 10.3402 21.3817 10.218 21.4071 10.0919C21.4324 9.96577 21.4461 9.83385 21.4461 9.69999V7.75999H27.2961V9.69999C27.2961 9.83385 27.3097 9.96577 27.3351 10.0919C27.3604 10.218 27.3994 10.3402 27.4482 10.4566C27.5476 10.6894 27.69 10.897 27.8655 11.0735C28.2184 11.4246 28.7059 11.6419 29.2441 11.6419C29.7823 11.6419 30.2698 11.4246 30.6228 11.0735C30.7983 10.8989 30.9426 10.6894 31.0401 10.4566C31.0888 10.3402 31.1278 10.218 31.1532 10.0919C31.1785 9.96577 31.1922 9.83385 31.1922 9.69999V7.75999H85.8V9.69999C85.8 9.83385 85.8137 9.96577 85.839 10.0919C85.8643 10.218 85.9033 10.3402 85.9521 10.4566C86.0515 10.6894 86.1939 10.897 86.3694 11.0735C86.7224 11.4246 87.2098 11.6419 87.748 11.6419C88.2862 11.6419 88.7737 11.4246 89.1267 11.0735C89.3022 10.8989 89.4465 10.6894 89.544 10.4566C89.5928 10.3402 89.6317 10.218 89.6571 10.0919C89.6824 9.96577 89.6961 9.83385 89.6961 9.69999V7.75999H95.5461V9.69999C95.5461 9.83385 95.5597 9.96577 95.5851 10.0919C95.6104 10.218 95.6495 10.3402 95.6982 10.4566C95.7976 10.6894 95.94 10.897 96.1155 11.0735C96.4684 11.4246 96.9559 11.6419 97.4941 11.6419C98.0323 11.6419 98.5199 11.4246 98.8728 11.0735C99.0483 10.8989 99.1926 10.6894 99.2901 10.4566C99.3388 10.3402 99.3778 10.218 99.4032 10.0919C99.4286 9.96577 99.4422 9.83385 99.4422 9.69999V7.75999H107.242C107.443 7.75999 107.644 7.76969 107.839 7.79103C109.902 8.00055 111.649 9.27901 112.513 11.0599C112.554 11.1453 112.593 11.2306 112.63 11.3179C112.704 11.4925 112.77 11.671 112.827 11.8534C112.999 12.4005 113.09 12.9805 113.09 13.5819V19.4019H3.9V13.5819C3.9 12.9805 3.99165 12.4005 4.16325 11.8534C4.2198 11.671 4.2861 11.4925 4.3602 11.3179C4.39725 11.2306 4.43625 11.1453 4.4772 11.0599C5.34105 9.27901 7.0902 8.00055 9.15135 7.79103C9.3483 7.77163 9.5472 7.75999 9.74805 7.75999H9.75ZM113.1 87.3C113.1 90.5088 110.475 93.12 107.25 93.12H9.75C6.5247 93.12 3.9 90.5088 3.9 87.3V23.28H113.1V87.3Z" fill="#20201D"/>
<path d="M48.4263 32.98H42.5763C41.4999 32.98 40.6263 33.8472 40.6263 34.92C40.6263 35.9928 41.4999 36.86 42.5763 36.86H48.4263C49.5027 36.86 50.3763 35.9928 50.3763 34.92C50.3763 33.8472 49.5027 32.98 48.4263 32.98Z" fill="#20201D"/>
<path d="M22.425 32.98H16.575C15.4986 32.98 14.625 33.8472 14.625 34.92C14.625 35.9928 15.4986 36.86 16.575 36.86H22.425C23.5014 36.86 24.375 35.9928 24.375 34.92C24.375 33.8472 23.5014 32.98 22.425 32.98Z" fill="#20201D"/>
<path d="M100.425 79.54H94.575C93.4986 79.54 92.625 80.4072 92.625 81.48C92.625 82.5529 93.4986 83.42 94.575 83.42H100.425C101.501 83.42 102.375 82.5529 102.375 81.48C102.375 80.4072 101.501 79.54 100.425 79.54Z" fill="#20201D"/>
<path d="M74.4257 79.54H68.5757C67.4993 79.54 66.6257 80.4072 66.6257 81.48C66.6257 82.5529 67.4993 83.42 68.5757 83.42H74.4257C75.5021 83.42 76.3757 82.5529 76.3757 81.48C76.3757 80.4072 75.5021 79.54 74.4257 79.54Z" fill="#20201D"/>
<path d="M48.4263 79.54H42.5763C41.4999 79.54 40.6263 80.4072 40.6263 81.48C40.6263 82.5529 41.4999 83.42 42.5763 83.42H48.4263C49.5027 83.42 50.3763 82.5529 50.3763 81.48C50.3763 80.4072 49.5027 79.54 48.4263 79.54Z" fill="#20201D"/>
<path d="M100.425 48.5H94.575C93.4986 48.5 92.625 49.3672 92.625 50.44C92.625 51.5128 93.4986 52.38 94.575 52.38H100.425C101.501 52.38 102.375 51.5128 102.375 50.44C102.375 49.3672 101.501 48.5 100.425 48.5Z" fill="#20201D"/>
<path d="M74.4257 48.5H68.5757C67.4993 48.5 66.6257 49.3672 66.6257 50.44C66.6257 51.5128 67.4993 52.38 68.5757 52.38H74.4257C75.5021 52.38 76.3757 51.5128 76.3757 50.44C76.3757 49.3672 75.5021 48.5 74.4257 48.5Z" fill="#20201D"/>
<path d="M48.4263 48.5H42.5763C41.4999 48.5 40.6263 49.3672 40.6263 50.44C40.6263 51.5128 41.4999 52.38 42.5763 52.38H48.4263C49.5027 52.38 50.3763 51.5128 50.3763 50.44C50.3763 49.3672 49.5027 48.5 48.4263 48.5Z" fill="#20201D"/>
<path d="M100.425 64.02H94.575C93.4986 64.02 92.625 64.8872 92.625 65.96C92.625 67.0328 93.4986 67.9 94.575 67.9H100.425C101.501 67.9 102.375 67.0328 102.375 65.96C102.375 64.8872 101.501 64.02 100.425 64.02Z" fill="#20201D"/>
<path d="M74.4257 64.02H68.5757C67.4993 64.02 66.6257 64.8872 66.6257 65.96C66.6257 67.0328 67.4993 67.9 68.5757 67.9H74.4257C75.5021 67.9 76.3757 67.0328 76.3757 65.96C76.3757 64.8872 75.5021 64.02 74.4257 64.02Z" fill="#20201D"/>
<path d="M48.4263 64.02H42.5763C41.4999 64.02 40.6263 64.8872 40.6263 65.96C40.6263 67.0328 41.4999 67.9 42.5763 67.9H48.4263C49.5027 67.9 50.3763 67.0328 50.3763 65.96C50.3763 64.8872 49.5027 64.02 48.4263 64.02Z" fill="#20201D"/>
</g>
<defs>
<clipPath id="clip0_116_2">
<rect width="117" height="97" fill="white"/>
</clipPath>
</defs>
</svg>
