<svg width="91" height="104" viewBox="0 0 91 104" fill="none" xmlns="http://www.w3.org/2000/svg">
<g clip-path="url(#clip0_116_24)">
<path d="M75.4788 24.3631L82.4439 17.4031C83.4354 16.4124 83.4354 14.8038 82.4439 13.8131C81.4504 12.8224 79.8427 12.8224 78.8513 13.8131L71.4481 21.2109C64.0825 16.0815 55.1366 13.0696 45.499 13.0696C35.8613 13.0696 26.9154 16.0815 19.5499 21.2109L12.1466 13.8131C11.1531 12.8224 9.54541 12.8224 8.55398 13.8131C7.56255 14.8038 7.56255 16.4124 8.55398 17.4031L15.5192 24.3631C6.01357 32.7013 0 44.9289 0 58.5348C0 83.6059 20.4092 104 45.499 104C70.5887 104 90.9979 83.6059 90.9979 58.5348C90.9979 44.9289 84.9843 32.7013 75.4767 24.3631H75.4788ZM45.499 98.9229C23.2138 98.9229 5.08082 80.8034 5.08082 58.5348C5.08082 36.2661 23.2138 18.1466 45.499 18.1466C67.7842 18.1466 85.9171 36.2661 85.9171 58.5348C85.9171 80.8034 67.7842 98.9229 45.499 98.9229Z" fill="#20201D"/>
<path d="M41.594 5.07705H49.4039C50.8082 5.07705 51.9443 3.94184 51.9443 2.53853C51.9443 1.13522 50.8082 0 49.4039 0H41.594C40.1897 0 39.0536 1.13522 39.0536 2.53853C39.0536 3.94184 40.1897 5.07705 41.594 5.07705Z" fill="#20201D"/>
<path d="M48.0415 57.6446V39.0224C48.0415 37.6191 46.9054 36.4839 45.5011 36.4839C44.0967 36.4839 42.9606 37.6191 42.9606 39.0224V58.5347C42.9606 59.1128 43.1577 59.6699 43.5161 60.1223L59.138 79.6346C59.641 80.2609 60.3788 80.5876 61.125 80.5876C61.6805 80.5876 62.2422 80.4075 62.7096 80.0326C63.8038 79.155 63.9819 77.559 63.1058 76.4615L48.0394 57.6467L48.0415 57.6446Z" fill="#20201D"/>
</g>
<defs>
<clipPath id="clip0_116_24">
<rect width="91" height="104" fill="white"/>
</clipPath>
</defs>
</svg>
