<svg width="145" height="99" viewBox="0 0 145 99" fill="none" xmlns="http://www.w3.org/2000/svg">
<path d="M142.287 92.6918L129.318 92.6665V85.8241L140.985 49.8675C141.249 49.0526 141.104 48.1637 140.593 47.4733C140.083 46.7809 139.27 46.3744 138.403 46.3744H79.3905C78.1987 46.3744 77.1468 47.1426 76.7981 48.2668L74.4578 55.7997C70.7268 47.695 62.7744 43.9509 56.6637 43.9509H39.4724C30.1429 43.9509 24.0737 44.5714 18.4043 53.2362L1.43361 81.4635C-0.585539 84.8983 -0.463405 89.4631 1.74682 93.0925C3.61035 96.1538 6.66961 97.9237 9.77417 97.7954L43.5166 97.8596C43.6446 97.8771 43.7727 97.8907 43.9027 97.8907C44.0327 97.8907 44.1647 97.881 44.2947 97.8615L65.217 97.9004C65.4455 97.9626 65.6859 97.9977 65.9341 97.9977H65.9439L84.331 97.9354L142.282 98.0443H142.287C143.785 98.0443 144.996 96.8501 145 95.372C145.002 93.8938 143.792 92.6918 142.293 92.6898L142.287 92.6918ZM9.67568 92.4428C7.91064 92.5012 6.79371 90.9919 6.39382 90.3345C5.40493 88.7104 4.93806 86.1684 6.10818 84.1748L23.0158 56.0506C27.0719 49.8558 30.5547 49.3015 39.4744 49.3015H56.6657C61.3895 49.3015 71.1425 53.3879 71.1425 66.0205C71.1425 66.143 71.1543 66.2636 71.1701 66.3803L66.0917 82.7277L56.6046 82.7355C55.1075 82.7355 53.894 83.9375 53.896 85.4157C53.896 86.8938 55.141 88.1503 56.6105 88.09L68.099 88.0803C69.2888 88.0803 70.3388 87.312 70.6894 86.1878L81.3939 51.725H134.686L124.021 84.5852C123.934 84.8497 123.891 85.1375 123.891 85.4157V92.4467L84.197 92.579L48.662 92.5128C48.7861 92.0402 48.8787 91.552 48.9338 91.0541C49.5051 86.0186 46.57 82.0489 41.8836 81.4188L29.3215 79.2929L35.1071 69.9999C35.8911 68.7415 35.4932 67.0921 34.2167 66.318C32.9422 65.5459 31.2717 65.9349 30.4877 67.1972L22.6022 79.8628C22.1314 80.6194 22.0703 81.5588 22.4426 82.3679C22.8129 83.179 23.5674 83.7527 24.4558 83.9044L41.0601 86.713C43.7215 87.0728 43.6348 89.6732 43.5462 90.4629C43.4575 91.2408 43.1837 91.9799 42.8153 92.5051L9.67568 92.4428Z" fill="#20201D"/>
<path d="M46.811 39.4431C57.2321 39.4431 64.5078 31.3323 64.5078 19.7216C64.5078 8.11076 57.2321 0 46.811 0C36.3899 0 29.1141 8.11076 29.1141 19.7216C29.1141 31.3323 36.3919 39.4431 46.811 39.4431ZM46.811 5.37399C55.8133 5.37399 59.0065 13.1041 59.0065 19.7216C59.0065 26.339 55.8133 34.0672 46.811 34.0672C37.8087 34.0672 34.6154 26.339 34.6154 19.7216C34.6154 13.1041 37.8087 5.37399 46.811 5.37399Z" fill="#20201D"/>
</svg>
